<svg xmlns="http://www.w3.org/2000/svg" width="100" height="100" viewBox="0 0 107.986 107.986">
  <g id="_008-pistons" data-name="008-pistons" transform="translate(0)">
    <path id="Path_2244" data-name="Path 2244" d="M111.083,277.671,89.838,298.915a3.172,3.172,0,0,1-4.474,0l-8.948-8.948a3.173,3.173,0,0,1,0-4.474l21.245-21.245a3.133,3.133,0,0,1,4.474,0l8.948,8.948A3.133,3.133,0,0,1,111.083,277.671Z" transform="translate(-59.571 -207.774)" fill="#babac0"/>
    <path id="Path_2245" data-name="Path 2245" d="M131.275,297.925,110.03,319.169a3.173,3.173,0,0,1-4.474,0l-4.474-4.474L126.8,288.977l4.474,4.474A3.133,3.133,0,0,1,131.275,297.925Z" transform="translate(-79.763 -228.029)" fill="#a1a1a7"/>
    <path id="Path_2246" data-name="Path 2246" d="M27,366.653a15.818,15.818,0,1,0,0,22.37A15.824,15.824,0,0,0,27,366.653ZM20.29,382.313a6.3,6.3,0,1,1,1.866-4.474A6.293,6.293,0,0,1,20.29,382.313Z" transform="translate(-0.001 -285.669)" fill="#e7e7e7"/>
    <path id="Path_2247" data-name="Path 2247" d="M44.326,383.978l-6.711,6.711a6.327,6.327,0,1,1-8.948,8.948l-6.711,6.711a15.818,15.818,0,0,0,22.371-22.37Z" transform="translate(-17.325 -302.993)" fill="#d3d3d8"/>
    <path id="Path_2248" data-name="Path 2248" d="M235.244,87.909,199.451,52.117a3.133,3.133,0,0,0-4.474,0l-17.9,17.9a3.133,3.133,0,0,0,0,4.474l35.793,35.793a3.133,3.133,0,0,0,4.474,0l17.9-17.9A3.132,3.132,0,0,0,235.244,87.909Z" transform="translate(-138.992 -40.383)" fill="#babac0"/>
    <path id="Path_2249" data-name="Path 2249" d="M305.716,162.855l-17.9,17.9a3.133,3.133,0,0,1-4.474,0l-17.9-17.9,22.37-22.37,17.9,17.9A3.133,3.133,0,0,1,305.716,162.855Z" transform="translate(-209.463 -110.855)" fill="#a1a1a7"/>
    <path id="Path_2250" data-name="Path 2250" d="M247.51,122.544a3.133,3.133,0,0,1-4.474,0L198.295,77.8a3.164,3.164,0,0,1,4.474-4.474L247.51,118.07A3.133,3.133,0,0,1,247.51,122.544Z" transform="translate(-155.731 -57.122)" fill="#e7e7e7"/>
    <path id="Path_2251" data-name="Path 2251" d="M334.72,209.755a3.133,3.133,0,0,1-4.474,0l-22.37-22.37,4.474-4.474,22.371,22.37A3.133,3.133,0,0,1,334.72,209.755Z" transform="translate(-242.942 -144.333)" fill="#d3d3d8"/>
    <path id="Path_2252" data-name="Path 2252" d="M138.126,160.5,93.385,115.757a3.133,3.133,0,0,0-4.474,0l-17.9,17.9a3.133,3.133,0,0,0,0,4.474l8.948,8.948a2.967,2.967,0,0,0,2.237.895l7.651.045,16.017,16.017.045,7.651a2.966,2.966,0,0,0,.895,2.237l8.948,8.948a3.133,3.133,0,0,0,4.474,0l17.9-17.9A3.132,3.132,0,0,0,138.126,160.5Z" transform="translate(-55.296 -90.601)" fill="#e7e7e7"/>
    <path id="Path_2253" data-name="Path 2253" d="M242.076,252.182l-17.9,17.9a3.133,3.133,0,0,1-4.474,0l-8.948-8.948a2.967,2.967,0,0,1-.895-2.237l-.045-7.651-8.008-8.009,17.9-17.9,22.37,22.37A3.133,3.133,0,0,1,242.076,252.182Z" transform="translate(-159.247 -177.811)" fill="#d3d3d8"/>
    <path id="Path_2254" data-name="Path 2254" d="M294.409,38.577,258.617,2.785a9.478,9.478,0,0,0-13.422,0l-4.474,4.474a3.133,3.133,0,0,0,0,4.474l44.741,44.741a3.133,3.133,0,0,0,4.474,0L294.409,52A9.478,9.478,0,0,0,294.409,38.577Z" transform="translate(-189.209 0)" fill="#e7e7e7"/>
    <path id="Path_2255" data-name="Path 2255" d="M381.62,129.377l-4.474,4.474a3.133,3.133,0,0,1-4.474,0L350.3,111.48l13.422-13.422,17.9,17.9A9.478,9.478,0,0,1,381.62,129.377Z" transform="translate(-276.42 -77.377)" fill="#d3d3d8"/>
    <path id="Path_2256" data-name="Path 2256" d="M46.171,394.771a9.491,9.491,0,1,0,0,13.422A9.478,9.478,0,0,0,46.171,394.771ZM41.7,403.719a3.164,3.164,0,1,1,0-4.474A3.133,3.133,0,0,1,41.7,403.719Z" transform="translate(-23.645 -309.312)" fill="#babac0"/>
    <path id="Path_2257" data-name="Path 2257" d="M56.592,405.191l-4.474,4.474a3.164,3.164,0,1,1-4.474,4.474h0l-4.474,4.474a9.491,9.491,0,1,0,13.422-13.422Z" transform="translate(-34.065 -319.732)" fill="#a1a1a7"/>
  </g>
</svg>
