<svg xmlns="http://www.w3.org/2000/svg" width="100" height="100" viewBox="0 0 138.104 113.288">
  <g id="_014-air-filter" data-name="014-air-filter" transform="translate(0)">
    <path id="Path_2306" data-name="Path 2306" d="M401,80.046v24.276a4.007,4.007,0,0,1-4.046,4.046H368.092L360,92.184,368.092,76h28.862A4.006,4.006,0,0,1,401,80.046Z" transform="translate(-262.896 -67.908)" fill="#babac0"/>
    <path id="Path_2307" data-name="Path 2307" d="M105.2,76H52.6a52.6,52.6,0,1,0,52.6,52.6,50.843,50.843,0,0,0-1.457-12.138,47.131,47.131,0,0,0-2.589-8.092H105.2Z" transform="translate(0 -67.908)" fill="#e7e7e7"/>
    <path id="Path_2308" data-name="Path 2308" d="M247.6,216.23a50.848,50.848,0,0,0-1.456-12.138,47.115,47.115,0,0,0-2.59-8.092H195v72.828A52.7,52.7,0,0,0,247.6,216.23Z" transform="translate(-142.402 -155.54)" fill="#babac0"/>
    <path id="Path_2309" data-name="Path 2309" d="M243.552,108.368H247.6V76H195v32.368Z" transform="translate(-142.402 -67.908)" fill="#d3d3d8"/>
    <path id="Path_2310" data-name="Path 2310" d="M118.322,166a28.322,28.322,0,1,0,28.322,28.322A28.353,28.353,0,0,0,118.322,166Z" transform="translate(-65.724 -133.632)" fill="#6e6e6e"/>
    <path id="Path_2311" data-name="Path 2311" d="M223.322,194.322A28.353,28.353,0,0,1,195,222.644V166A28.353,28.353,0,0,1,223.322,194.322Z" transform="translate(-142.402 -133.632)" fill="#5a5a5a"/>
    <path id="Path_2312" data-name="Path 2312" d="M140.23,196a20.23,20.23,0,1,0,20.23,20.23A20.237,20.237,0,0,0,140.23,196Z" transform="translate(-87.632 -155.54)" fill="#444"/>
    <path id="Path_2313" data-name="Path 2313" d="M215.23,216.23A20.237,20.237,0,0,1,195,236.46V196A20.237,20.237,0,0,1,215.23,216.23Z" transform="translate(-142.402 -155.54)" fill="#292929"/>
    <g id="Group_175" data-name="Group 175" transform="translate(24.276 56.644)">
      <path id="Path_2314" data-name="Path 2314" d="M188.092,290.046V306.23a4.046,4.046,0,1,1-8.092,0V290.046a4.046,4.046,0,1,1,8.092,0Z" transform="translate(-155.724 -277.908)" fill="#6e6e6e"/>
      <path id="Path_2315" data-name="Path 2315" d="M110.23,264.092H94.046a4.046,4.046,0,1,1,0-8.092H110.23a4.046,4.046,0,1,1,0,8.092Z" transform="translate(-90 -256)" fill="#6e6e6e"/>
      <path id="Path_2316" data-name="Path 2316" d="M120.429,296.738a4.046,4.046,0,0,1-2.861-6.907L129.007,278.4a4.046,4.046,0,0,1,5.721,5.722l-11.439,11.435A4.033,4.033,0,0,1,120.429,296.738Z" transform="translate(-109.266 -271.489)" fill="#6e6e6e"/>
    </g>
    <g id="Group_176" data-name="Group 176" transform="translate(54.274 39.488)">
      <path id="Path_2317" data-name="Path 2317" d="M230.23,264.092H214.046a4.046,4.046,0,1,1,0-8.092H230.23a4.046,4.046,0,1,1,0,8.092Z" transform="translate(-207.629 -238.844)" fill="#5a5a5a"/>
      <path id="Path_2318" data-name="Path 2318" d="M205.258,211.923a4.046,4.046,0,0,1-2.861-6.907l11.439-11.435a4.046,4.046,0,0,1,5.721,5.721l-11.439,11.435A4.033,4.033,0,0,1,205.258,211.923Z" transform="translate(-201.212 -192.396)" fill="#5a5a5a"/>
      <path id="Path_2319" data-name="Path 2319" d="M216.7,296.738a4.032,4.032,0,0,1-2.86-1.186L202.4,284.117a4.046,4.046,0,0,1,5.721-5.722l11.439,11.435a4.046,4.046,0,0,1-2.861,6.907Z" transform="translate(-201.212 -254.333)" fill="#5a5a5a"/>
    </g>
    <path id="Path_2320" data-name="Path 2320" d="M131.867,211.923a4.032,4.032,0,0,1-2.86-1.186L117.568,199.3a4.046,4.046,0,0,1,5.721-5.721l11.439,11.435a4.046,4.046,0,0,1-2.861,6.907Z" transform="translate(-84.99 -152.908)" fill="#6e6e6e"/>
    <path id="Path_2321" data-name="Path 2321" d="M424.046,94.552A4.044,4.044,0,0,1,420,90.506V50.046a4.046,4.046,0,0,1,8.092,0v40.46A4.044,4.044,0,0,1,424.046,94.552Z" transform="translate(-306.712 -46)" fill="#e7e7e7"/>
    <path id="Path_2322" data-name="Path 2322" d="M188.092,170.046V186.23a4.046,4.046,0,0,1-8.092,0V170.046a4.046,4.046,0,1,1,8.092,0Z" transform="translate(-131.448 -133.632)" fill="#6e6e6e"/>
    <g id="Group_177" data-name="Group 177" transform="translate(52.598 32.368)">
      <path id="Path_2323" data-name="Path 2323" d="M199.046,170.046V186.23A4.007,4.007,0,0,1,195,190.276V166A4.006,4.006,0,0,1,199.046,170.046Z" transform="translate(-195 -166)" fill="#5a5a5a"/>
      <path id="Path_2324" data-name="Path 2324" d="M199.046,290.046V306.23A4.007,4.007,0,0,1,195,310.276V286A4.006,4.006,0,0,1,199.046,290.046Z" transform="translate(-195 -253.632)" fill="#5a5a5a"/>
    </g>
    <path id="Path_2325" data-name="Path 2325" d="M162.138,226a12.138,12.138,0,1,0,12.138,12.138A12.121,12.121,0,0,0,162.138,226Z" transform="translate(-109.54 -177.448)" fill="#6e6e6e"/>
    <path id="Path_2326" data-name="Path 2326" d="M207.138,238.138A12.122,12.122,0,0,1,195,250.276V226A12.121,12.121,0,0,1,207.138,238.138Z" transform="translate(-142.402 -177.448)" fill="#5a5a5a"/>
    <path id="Path_2327" data-name="Path 2327" d="M184.046,264.092a4.046,4.046,0,1,1,4.046-4.046A4.051,4.051,0,0,1,184.046,264.092Z" transform="translate(-131.448 -199.356)" fill="#444"/>
    <path id="Path_2328" data-name="Path 2328" d="M199.046,260.046A4.05,4.05,0,0,0,195,256v8.092A4.05,4.05,0,0,0,199.046,260.046Z" transform="translate(-142.402 -199.356)" fill="#292929"/>
  </g>
</svg>
