<svg xmlns="http://www.w3.org/2000/svg" width="44.718" height="44.718" viewBox="0 0 44.718 44.718">
  <g id="Link" transform="translate(0 29.812) rotate(-45)">
    <path id="Path_1009" data-name="Path 1009" d="M15.81,1.743A1.737,1.737,0,0,0,14,0C3.653.473,0,2.55,0,10.54S3.653,20.607,14,21.078a1.737,1.737,0,0,0,1.81-1.741A1.782,1.782,0,0,0,14.1,17.566c-.956-.044-1.842-.1-2.664-.178a17.733,17.733,0,0,1-5.4-1.127A3.412,3.412,0,0,1,4.2,14.655a9.194,9.194,0,0,1-.685-4.115A9.194,9.194,0,0,1,4.2,6.425,3.412,3.412,0,0,1,6.04,4.82a17.732,17.732,0,0,1,5.4-1.127c.822-.076,1.709-.134,2.664-.178A1.782,1.782,0,0,0,15.81,1.743ZM26.35,19.337a1.782,1.782,0,0,1,1.708-1.771c.956-.044,1.842-.1,2.664-.178a17.733,17.733,0,0,0,5.4-1.127,3.413,3.413,0,0,0,1.841-1.605,9.194,9.194,0,0,0,.685-4.115,9.194,9.194,0,0,0-.685-4.115A3.413,3.413,0,0,0,36.121,4.82a17.733,17.733,0,0,0-5.4-1.127c-.822-.076-1.709-.134-2.664-.178A1.782,1.782,0,0,1,26.35,1.743,1.737,1.737,0,0,1,28.16,0c10.348.471,14,2.548,14,10.538s-3.653,10.067-14,10.538A1.737,1.737,0,0,1,26.35,19.337Z" transform="translate(0 0)" fill="#fff" fill-rule="evenodd"/>
    <path id="Path_1010" data-name="Path 1010" d="M7,6H24.567" transform="translate(5.297 4.54)" fill="none" stroke="#fff" stroke-linecap="round" stroke-linejoin="round" stroke-width="4"/>
  </g>
</svg>
