<svg xmlns="http://www.w3.org/2000/svg" width="610.822" height="611.79" viewBox="0 0 610.822 611.79">
  <g id="Path-active" transform="translate(188.8 -8.547) rotate(25)" fill="none">
    <path d="M204.49,5.2c131.124,0,263.584,96.226,263.584,226.008S361.777,466.2,230.654,466.2,9.074,419.936,9.074,290.154,73.367,5.2,204.49,5.2Z" stroke="none"/>
    <path d="M 204.4903564453125 10.19888305664062 C 196.6807861328125 10.19888305664062 188.9254150390625 10.77670288085938 181.4397277832031 11.916259765625 C 174.1445922851562 13.02682495117188 166.9130249023438 14.7001953125 159.94580078125 16.88995361328125 C 153.1478576660156 19.02645874023438 146.4234008789062 21.71044921875 139.9592895507812 24.86737060546875 C 133.6445922851562 27.95132446289062 127.4148559570312 31.56631469726562 121.4430236816406 35.61199951171875 C 109.8756713867188 43.44851684570312 98.88079833984375 53.15887451171875 88.763916015625 64.473388671875 C 79.06759643554688 75.3175048828125 70.03497314453125 87.79156494140625 61.91690063476562 101.5491943359375 C 54.11578369140625 114.7698059082031 47.07290649414062 129.3182678222656 40.98397827148438 144.7903137207031 C 35.10284423828125 159.7343139648438 30.06939697265625 175.6427001953125 26.02346801757812 192.0735168457031 C 22.08334350585938 208.0746459960938 19.06640625 224.619384765625 17.05654907226562 241.2482604980469 C 15.07748413085938 257.6220092773438 14.073974609375 274.0763244628906 14.073974609375 290.1541137695312 C 14.073974609375 298.0273132324219 14.41928100585938 305.7324523925781 15.100341796875 313.0556335449219 C 15.7716064453125 320.2730102539062 16.78765869140625 327.3204956054688 18.12030029296875 334.0022583007812 C 19.43316650390625 340.5850219726562 21.09002685546875 346.9966430664062 23.0447998046875 353.05908203125 C 24.97048950195312 359.0313720703125 27.23934936523438 364.832275390625 29.78836059570312 370.3005065917969 C 32.30047607421875 375.689697265625 35.15542602539062 380.9076232910156 38.27392578125 385.8093872070312 C 41.34991455078125 390.6443176269531 44.769287109375 395.3082580566406 48.43704223632812 399.6717529296875 C 52.0584716796875 403.9802551269531 56.02459716796875 408.1177062988281 60.22528076171875 411.9693298339844 C 64.37673950195312 415.7756958007812 68.87448120117188 419.4105224609375 73.59359741210938 422.7726440429688 C 82.87384033203125 429.3842468261719 93.40127563476562 435.2200622558594 104.883544921875 440.1180725097656 C 116.1028442382812 444.9039306640625 128.5450439453125 448.9273681640625 141.8644714355469 452.0766906738281 C 154.8464050292969 455.1462097167969 169.0189819335938 457.4697570800781 183.9885864257812 458.9828796386719 C 198.5354614257812 460.4533081054688 214.23583984375 461.1988830566406 230.6535949707031 461.1988830566406 C 246.4296569824219 461.1988830566406 262.1942749023438 459.6260681152344 277.509521484375 456.5242004394531 C 292.4325561523438 453.5017700195312 307.111083984375 448.9918823242188 321.1374816894531 443.1199340820312 C 334.9094848632812 437.3544311523438 348.1927185058594 430.21826171875 360.6182861328125 421.9096374511719 C 372.9260864257812 413.6796875 384.4997863769531 404.228271484375 395.0178527832031 393.8177490234375 C 405.5349731445312 383.408203125 415.0829772949219 371.9544372558594 423.3966064453125 359.7745666503906 C 431.7884216308594 347.4801330566406 438.9957885742188 334.3375854492188 444.8185424804688 320.7118835449219 C 450.748046875 306.8362426757812 455.3020324707031 292.3158874511719 458.3539733886719 277.5540771484375 C 461.4859008789062 262.4051513671875 463.073974609375 246.8118896484375 463.073974609375 231.2073822021484 C 463.073974609375 215.7768249511719 461.1260375976562 200.392578125 457.2843627929688 185.4818725585938 C 453.5839233398438 171.1194458007812 448.0752258300781 156.9895629882812 440.9112854003906 143.4847717285156 C 433.9664001464844 130.392822265625 425.3901062011719 117.7410583496094 415.420654296875 105.8809509277344 C 405.6832275390625 94.2967529296875 394.5390930175781 83.37307739257812 382.2979125976562 73.4132080078125 C 370.2337341308594 63.59732055664062 357.0363464355469 54.661376953125 343.0724182128906 46.85357666015625 C 329.1680297851562 39.07907104492188 314.4434204101562 32.38906860351562 299.3075561523438 26.96939086914062 C 284.0729064941406 21.51437377929688 268.3531494140625 17.32220458984375 252.5849761962891 14.50936889648438 C 236.5510406494141 11.64913940429688 220.3696594238281 10.19888305664062 204.4903564453125 10.19888305664062 M 204.4903564453125 5.198883056640625 C 335.6140441894531 5.198883056640625 468.073974609375 101.4251403808594 468.073974609375 231.2073822021484 C 468.073974609375 360.9895629882812 361.7772216796875 466.1988830566406 230.6535949707031 466.1988830566406 C 99.5299072265625 466.1988830566406 9.073974609375 419.9363098144531 9.073974609375 290.1541137695312 C 9.073974609375 160.3719482421875 73.36654663085938 5.198883056640625 204.4903564453125 5.198883056640625 Z" stroke="none" fill="#f7941d"/>
  </g>
</svg>
