<svg xmlns="http://www.w3.org/2000/svg"  version="1.1" xmlns:xlink="http://www.w3.org/1999/xlink" xmlns:svgjs="http://svgjs.com/svgjs" width="1440" height="560" preserveAspectRatio="none" viewBox="0 0 1440 560"><g mask="url(&quot;#SvgjsMask1000&quot;)" fill="none"><rect opacity="0.9" width="1440" height="560" x="0" y="0" fill="#0e2a47"></rect><path d="M -87.13341408087922,181 C 8.87,210.6 200.87,331.8 392.8665859191208,329 C 584.87,326.2 680.87,133 872.8665859191208,167 C 1064.87,201 1160.87,485 1352.8665859191208,499 C 1544.87,513 1815.44,237.6 1832.8665859191208,237 C 1850.29,236.4 1518.57,444.2 1440,496" stroke="rgba(51, 121, 194, 0.58)" stroke-width="2"></path><path d="M -399.57349971847935,146 C -303.57,184.2 -111.57,352.8 80.42650028152065,337 C 272.43,321.2 368.43,60.2 560.4265002815207,67 C 752.43,73.8 848.43,359.2 1040.4265002815207,371 C 1232.43,382.8 1440.51,141.4 1520.4265002815207,126 C 1600.34,110.6 1456.09,260.4 1440,294" stroke="rgba(51, 121, 194, 0.58)" stroke-width="2"></path><path d="M -328.8818909607854,416 C -232.88,349.8 -40.88,91 151.11810903921457,85 C 343.12,79 439.12,383.6 631.1181090392146,386 C 823.12,388.4 919.12,91.2 1111.1181090392147,97 C 1303.12,102.8 1525.34,410.4 1591.1181090392147,415 C 1656.89,419.6 1470.22,179 1440,120" stroke="rgba(51, 121, 194, 0.58)" stroke-width="2"></path><path d="M -281.7536631603597,287 C -185.75,257.2 6.25,94.8 198.24633683964035,138 C 390.25,181.2 486.25,493 678.2463368396403,503 C 870.25,513 966.25,187.8 1158.2463368396404,188 C 1350.25,188.2 1581.9,506.4 1638.2463368396404,504 C 1694.6,501.6 1479.65,241.6 1440,176" stroke="rgba(51, 121, 194, 0.58)" stroke-width="2"></path></g><defs><mask id="SvgjsMask1000"><rect width="1440" height="560" fill="#ffffff"></rect></mask></defs></svg>
